<?xml version="1.0" encoding="UTF-8"?>
<svg id="_레이어_1" data-name="레이어 1" xmlns="http://www.w3.org/2000/svg" viewBox="0 0 299.18 262.17">
  <defs>
    <style>
      .cls-1 {
        fill: aqua;
      }

      .cls-2 {
        fill: #ff1d25;
      }
    </style>
  </defs>
  <path class="cls-1" d="M8.18,112.43c6.79,4.46,16.57,2.76,22.42-2.67.58-.54,1.06-1.34,1.59-1.88,2.49-2.5,5.2-4.69,7.6-7.17,1.31-1.36,4.07-2.71,5.67-3.89,3.93-2.9,8.25-4,12.83-5.28,12.03-3.35,24.5-6.14,36.75-9.13,21.37-5.22,42.73-10.13,64.02-15.28,3.59-.87,7.15-1.89,10.74-2.73,2.25-.53,4.52-.65,6.71-1.53.34-.14.7-.51.87-.84.5-.94.22-3.18.07-4.27-.23-1.73-.97-1.96,1.24-2.71,4.51-1.52,9.5-2.28,14.11-3.4,1.17-.28,5.13-1.18,5.86-1.82.22-.2.36-.61.59-.88.64-.72,1.28-.49.82-1.85-.58-1.74-2.69-1.53-4.11-1.59-2.14-.08-4.3-.07-6.47.32l-13.55,3.52-.48-.22-1.25-2.86c-.39-.27-.96-1.54-1.26-1.66-.28-.1-1.34-.07-1.68-.03-2.23.3-7.04,1.4-8.83,2.62-.53.36-.46,1.65-.33,2.24.46,2.11,1.36,4.18,1.73,6.35.13.76.3,1.54-.53,1.9-1.33.58-4.11,1.07-5.65,1.44-7.14,1.73-14.26,3.26-21.43,4.96-7.61,1.8-15.07,3.75-22.69,5.42-1.52.33-4.6,1.46-5.96,1.31-.9-.1-2.04-1.43-2.78-1.95-.8-.57-4.27-3.34-4.59-3.46-1.15-.45-2.86-1-3.68-2.09-.46-.62-.35-1.53-1.4-1.78-1.07-.25-1.62.24-2.48.46-2.23.58-3.56,1.29-5.77.37-1.71-.71-4.14-2.43-5.97-2.17-4.06.57-8.7,2.22-12.76,3.21-3,.73-7.09,1.16-9.85,2.5-.47.23-.61.54-.83.98-.91,1.84.03,3.42-2.51,4.18-1.17.35-2.63.51-3.81.79-3.67.87-7.24,1.81-10.89,2.75-1.21.31-2.97.99-4.2,1.06-.92.06-1.94-2.12-2.9-2.57-.3-.14-1.95-.27-2.33-.23-3.29.35-8.33,2.04-11.73,2.93-3.21.85-9.81,2.25-12.22,4.41-1.91,1.71-4.29,6.28-5.54,8.65-.58,1.11-1.12,2.09-1.33,3.39-.13.76.64,4.62.96,5.47.29.77,1.05,1.51,1.44,2.35,1.6,3.41,2.18,7.46,4.02,10.61.53.9.94,1.21,1.74,1.73Z"/>
  <path class="cls-1" d="M290.92,112.78c-6.81,4.44-16.58,2.69-22.4-2.76-.58-.54-1.05-1.35-1.59-1.89-2.48-2.51-5.18-4.71-7.57-7.2-1.31-1.37-4.06-2.73-5.65-3.91-3.91-2.91-8.23-4.04-12.81-5.33-12.01-3.4-24.48-6.24-36.71-9.28-21.34-5.31-42.69-10.31-63.96-15.54-3.59-.88-7.14-1.92-10.73-2.77-2.25-.53-4.52-.67-6.71-1.56-.34-.14-.69-.51-.87-.84-.49-.94-.2-3.18-.05-4.27.24-1.73.98-1.96-1.23-2.71-4.5-1.54-9.49-2.32-14.1-3.46-1.16-.29-5.13-1.2-5.85-1.84-.22-.2-.36-.62-.59-.88-.64-.72-1.27-.49-.82-1.85.59-1.74,2.7-1.52,4.12-1.57,2.14-.07,4.3-.05,6.47.34l13.54,3.58.49-.22,1.26-2.86c.39-.27.96-1.54,1.27-1.65.28-.1,1.34-.07,1.68-.02,2.23.31,7.04,1.43,8.82,2.65.53.36.45,1.65.32,2.25-.47,2.11-1.38,4.18-1.76,6.35-.13.76-.31,1.54.52,1.9,1.33.58,4.1,1.09,5.65,1.47,7.13,1.76,14.25,3.32,21.41,5.05,7.61,1.83,15.06,3.81,22.67,5.51,1.52.34,4.59,1.48,5.95,1.34.9-.09,2.05-1.42,2.79-1.94.81-.56,4.29-3.32,4.6-3.44,1.15-.45,2.87-.99,3.69-2.08.46-.61.36-1.53,1.41-1.77,1.07-.25,1.62.24,2.48.47,2.23.59,3.55,1.3,5.77.39,1.71-.7,4.15-2.41,5.98-2.14,4.05.59,8.69,2.26,12.74,3.27,2.99.74,7.09,1.18,9.84,2.54.47.23.61.55.82.99.9,1.84-.05,3.42,2.49,4.19,1.17.35,2.63.52,3.8.8,3.67.89,7.23,1.84,10.88,2.8,1.21.32,2.97,1,4.19,1.08.92.06,1.95-2.12,2.91-2.56.3-.14,1.95-.26,2.33-.22,3.29.36,8.32,2.07,11.71,2.98,3.21.86,9.8,2.29,12.2,4.46,1.9,1.72,4.27,6.3,5.5,8.67.58,1.11,1.11,2.1,1.32,3.4.12.76-.66,4.62-.98,5.47-.3.77-1.05,1.51-1.45,2.35-1.61,3.4-2.21,7.45-4.07,10.59-.53.9-.95,1.2-1.75,1.72Z"/>
  <g>
    <path class="cls-2" d="M147.89,54.44c-.14-.17-1.54.49-1.76.62s-.59.35-.69.59c.11.14,2.03-.81,2.26-.97.09-.07.2-.11.19-.25Z"/>
    <path class="cls-2" d="M151.65,72.48c-.05.63.31.78.81.39.01-.09-.73-.44-.81-.39Z"/>
    <path class="cls-2" d="M141.83,67.61l-.23-.03-.04.31.11.02c.13-.06.16-.15.16-.29Z"/>
    <path class="cls-2" d="M155,71s-.09.28.08.25c.25-.05,0-.32-.08-.25Z"/>
    <path class="cls-2" d="M141.71,63.54c.06-.13-.13-.65-.09-.87.05-.29.43-.46.48-.64.06-.24-.23-.43.04-.76.1-.13.25-.12.33-.2.57-.59,1.34-1.64,1.91-2.12.22-.19.74-.36.95-.52.15-.12.28-.45.43-.49.23-.06.56.06.79-.02.09-.03.13-.16.27-.21.97-.38,1.61-.18,2.54-.18,1.02,0,.34-.84.22-1.37-.16-.71.36-1.29.3-1.53-.13-.5-1.26.24-1.16-.44.04-.28.52-.66.71-.99,1.67.6,3.43,1.04,5.24,1.4.39.31.85.56,1.34.93,1.61,1.19,3.04,3.15,3.58,5.08.72,2.62.33,6.93-1.82,8.79-.08.07-.39.55-.53.34-.12-.17.62-1.29.73-1.54.84-1.94,1.04-4.21.46-6.24-.64-2.24-1.61-3.71-3.37-5.23-.39-.34-.96-.58-1.31-.87-.16-.14-.64-.79-.79-.85-.16-.06-.19.24-.42.25-.34.02-.52-.22-.75-.27-.57-.11-.28,1.07-.3,1.33-.03.4-.4.78-.07,1.21.29.38.86.3,1.26.43.32.11.65.42,1.05.52.26.06.61-.01.78.09.13.08.11.27.21.34.15.11.27-.08.62.28.21.21.48.83.52.86.13.11.42.11.57.23.23.18.15,1.09.29,1.21.08.06.37.06.53.19.3.22.24.66.08.94l.26-.2c.21-.12.27.51.22.68-.02.07-.48.24-.43.31,0,0,.1,0,.12.04.22.45.41.48.52.68.03.05.17.68.17.76,0,.08,0,.26-.14.18-.18-.11-.13-.44-.37-.44v.55s.16-.05.16-.05c.04.5-.03,1.23-.29,1.67-.06.1-.33.22-.39.49-.03.15.1.33.03.43-.07.11-.33.18-.4.39-.07.22.17.39,0,.73-.08.17-.65.49-.79.69-.17.23-.27.7-.46.85-.18.14-.37.06-.52.13-.12.05-.19.25-.37.33-.19.08-.47.02-.6.11-.11.08-.13.31-.29.43-.13.1-.61.17-.69.31-.06.11-.05.24-.12.35-.2.31-.26-.11-.45-.14-.14-.02-.34.13-.49.17-.15.04-.47-.01-.52.12-.03.07.08.36,0,.43-.02.01-.3,0-.42.04-.37.13-.74.6-.42-.23-.18.06-.37.03-.54.1-.05.02-.06.18-.25.18-.22,0-.29-.17-.37-.19-.09-.02-.26.14-.42.14-.77.03-.91-.29-1.4-.46-.18-.06-.36,0-.54-.07-.12-.05-.18-.21-.38-.27-.38-.12-1.01.03-1.25-.3-.08-.12-.06-.3-.15-.38-.33-.31-1.16-.75-1.62-1.1-.11-.09-.34-.14-.41-.24-.11-.15.01-.35-.04-.52-.01-.04-.5-.61-.54-.63-.18-.14-.38-.02-.57-.16.3-.57-.17-.93-.18-1.51-.1-.11-.43.27-.55.29-.3,0-.3-.89-.27-1.12.02-.02.44.21.49.25.06.05.22.54.27-.1.02-.32-.18-.29-.28-.48-.05-.09-.32-.68-.31-.72,0-.16.22-.25.28-.42.29-.82-.48-.49-.43-.84.04-.26.45-.19.52-.33ZM146.5,65.11c.11.5,1.03,1.84,1.58,1.92.93.13,1.34-.08,2.09-.46.22-.11.52-.1.68-.33.15-.21.18-.56.29-.8.09-.2.32-.37.35-.55.04-.3-.69-1.11-.79-1.48-.45-.16-1.01-.83-1.42-.83-.55,0-1.11.19-1.58.47-.22.13-.94.62-.99.83-.03.13.02.31-.02.47-.07.3-.26.47-.2.76Z"/>
  </g>
</svg>