<?xml version="1.0" encoding="UTF-8"?>
<svg id="_레이어_1" data-name="레이어 1" xmlns="http://www.w3.org/2000/svg" viewBox="0 0 732.04 267.04">
  <defs>
    <style>
      .cls-1 {
        fill: #f0f;
      }

      .cls-2 {
        fill: lime;
      }
    </style>
  </defs>
  <path class="cls-2" d="M494.75,221.61c5.1-2.01,14.78-2.63,20.33-4.4,7.71-2.46,14.31-8.66,24.79-6.65,7.6,1.46,18.12,9.19,25.39,6.49,4.89-1.82,18.05-12.24,20.11-16.88,3.53-7.95-7.07-4.67-10.82-2.1-2.95,2.02-4.42,4.79-7.66,7.09-7.82,5.53-16.41,6.16-25.08,2.01,5.44-6.93,6.18-2.71,11.68-3.52,6.14-.9,11.33-6.66,15.98-8.23,3.99-1.34,10.19-.89,14.31-3.12,18.79-10.15,33.59-27.03,54.61-34.01.89-.29,12.8-5.4,8.53-.74-2.7,2.94-13.17,7.44-16.9,9.63-.78.46-1.09,1.95-1.8,2.35-4.16,2.33-11.44,1.5-12.67,9.18.79.22,1.56.35,2.32.48,13.65-8.99,26.86-18.58,39.96-28.34-1.5-.64-3.17-1.68-3.29-2.01-.22-.64,1.48-4.93,2.27-5.56,1-.79,8.24.48,10.4.26.14-.01.35-.06.52-.09,8.18-6.12,16.36-12.25,24.63-18.26,12.89-9.37,26.12-18,39.66-26.02-6.08-1.07-11.94-1.67-17.33-1.5-14.26.46-24.52,1.12-39.33-.29-13.25-1.27-18.5-.7-30.77-.88-15.77-.23-33.1-3.34-48.67-3.71-13.58-.33-19.38,3.1-30.9,5.53-17.39,3.67-19.31-.95-34.22-4.29-5.49-1.23-14.93-.3-21.32-1.69-10.4-2.25-20.95-8.07-30.97-10.28-22.56-4.98-56.07,4.95-80.32-4.39-16.55-6.37-17.55-6.56-34.67-9.76-5.68-1.06-11.51-3.83-17.67-4.54-12.34-1.44-25.44,6.71-37.32,9.34-5.06,1.12-39.14-3.82-47.06-5.11-14.04-2.3-27.59-6.78-41.49-9.68l-1.86,1.32c.89,3.24,30.6,12.73,36.02,13.99,7.72,1.8,19.46,1.51,27.17,3.86,6.36,1.93,15.97,9.72,20.13,10.31,1.61.23,12.1-3.04,14.02-3.97,3.52-1.71,8.68-6.91,11.4-7.54,10.42-2.42,16.88,1.03,26.11,1.46,3.77.18,8.18-2.58,12.1-.31.21.43-6.55,6.1-7,6.33-5.45,2.79-15.79,1.97-20.94,3.66-5.7,1.87-12.25,8.8-20.41,10.44-9.76,1.96-51.98,2.92-62.03,1.55-12.28-1.68-8.64-3.78-15.43-9.35-7.93-6.5-40.37-18.48-51.1-21.64-3.63-1.07-10.43-2.42-7.35,3.21,3.13,5.7,38.7,16.55,46.68,21.63-1.28,6.7-11.89-.52-15.39-1.61-14.64-4.55-39.96-12-51.76-20.84-16.94-12.7-37.07-21.19-56.89-29.69-2.79-1.19-6.13-.69-9.74-2.76-3.15-1.81-3.78-4.95-6.18-7.1-13.07-11.7-25.8-19.55-41.98-26.64-3.15-1.38-21.86-9.26-15.51.94,2.57,4.13,26.5,12.71,32.53,18.05,3.29,2.9,3.21,6.72,6.37,9.94,14.17,14.45,47.99,24.42,66.69,35.58,1.46.87,7.17,5.47,6.72,6.64-9.54,5.8-23.37-4.43-29.84,6.75.62,1.18,22.96,3.01,26.34,3.09,3.46.09,9.4-1.89,13.97-1.67,16.24.76,35.48,11.8,50.91,17.28,16.23,5.76,32.15,5.5,48.67,8.66,3.77.72,7.12,3.21,11.48,3.82,4.81.68,11.24-.98,19.39-.08,1.19.13,1.77-2.33,5.27-1.67,13.69,2.58,6.14,5.93,6.92,7.84,4.99,3.55,10.58-1.92,13.18-2.36,2.45-.41,4.83,1.81,8.41,1.31,2.83-.39,9.27-4.86,12.23-6.58,11.13-6.5,19.72-12.41,34.63-13.91,7.25-.73,17.97,1.84,23.01,1.08,13.91-2.12,19.85-4.47,35.01-2.49,1.13.15,1.72-1.84,2.36-1.78,4.3.39,3.55,8.46,4.69,10.66.99,1.92,4.84,3.84,6.87,4.82,17.76,8.55,51.37,16.86,71.14,18.91,2.51.26,3.11-1.99,4.24-1.81,2.45.38,4.31,2.46,7.39,1.61,3.58-.98,3.81-6.11,6.59-7.11,3.39-1.21,12.09-1.32,16.67-2.42,5.22-1.24,17.73-7.75,21.92-8.11,6.73-.57,13.06-1.25,19.73-1.93,8.27-.84,41.67-.37,48.75,1.69,3.32.96,8.75,3.62,6.39,7.68-4.97,8.54-20.15,17.72-29.92,19.06-16.94,2.33-34.34-2.61-50.12-7.02-4.32-1.21-17.39-5.94-18.45.2-.46,2.68,20.39,12.35,23.87,15.53l-12.25,6.66c-4.46-.04-20.57,1.65-10.28,7.72,3.43,2.02,22.55.83,27.42.05,6.4-1.02,15.87-6.07,22.52-4.59,8.35,1.86-11.5,13.17-12.49,14.04-2.47,2.18-3.02,4.8-6.61,7.27-10.89,7.53-27.15,9.14-39.47,12.75-7.13,2.09-14.1,9.15-22.36,4.65-1.75-.95-9.35-6.48-11.12-7.92-3.61-2.95-5.53-9.46-10.4-12.09-4.82-7.21,7.43-10.71,12.28-14.18,1.87-1.34,2.53-3.74,3.85-4.63.5-.34,9.96-1.41,12-1.76,1.73-.3,3.01,1.99,3.61-1.71-5.09-1.42-10.69-5.13-15.8-5.88-3.51-.52-6.7,2.21-11.04,1.65-8.87-1.15-20.52-2.75-29.29-4.22-12.71-2.13-24.97-8.4-38.9-8.25-2.86.03-11.32,1.9-9.68,5.84.33.8,14.24,4.63,16.43,5.21,5.3,5.19,15.01,7.09,21.09,11.12,2.12,1.41,9.5,11.09,5.63,12.74-.53.22-6.42-1.71-11.13-.27-24.88,7.62-44.12,16.11-71.68,13.68-6.81-.6-46.11-11.33-48.35-5.28-1.92,5.18,10.41,4.91,13.29,5.6,33.13,7.9,43.08,9.74,76.81,3.28,6.48-1.24,13.35-4.39,18.98-5.89,3.39-.91,8.21-2.42,11.54-2.72,5.09-.45,13.66,1.63,17.03.84,4.69-1.08,4.8-9.41,12.72-4.49,6.88,4.27-2.99,6.65-3.57,7.5-3.17,4.65,7.66,4.94,9.43,5.64,6.88,2.73,14.28,8.24,21.33,9.74,1.17,5.2-11.68,7.29-15.12,9.01-28.77,14.39-54.83,33.73-88.11,38.2-4.88.66-65.45-2.01-69.98-3.15-7.16-1.81-15.1-8.59-22.63-11.52-4.54-1.77-9.82-1.43-14.77-4.24-2.69-1.52-3.61-4.31-6.02-5.28-3.91-1.56-27.16,4.79-21.22,12.42,4.32,5.54,12.29.08,17.13.63,1.35.15,12.02,2.43,12.88,2.76,2.99,1.13,5.84,4.65,9.59,5.13-14.58,4.08-32.57.34-46.18-5.7-10.12-4.49-19.34-12.17-28.77-16.77-68.35-33.29-137.29-45.22-195.51-98.37-5.29-4.83-19.16-19.52-25.95-19.9-1.98-.11-7.75,1.92-9.15,3.47-7.64,8.45,10.34,13.25,14.88,16.5,16.75,11.97,22.53,24.53,44.97,37.09,47.84,26.78,101.93,48.1,151.88,71.27,15.78,7.32,29.19,15.87,44.12,22.95,27.97,13.25,73.75,3.32,105.71,6.49,4.9.49,12.55.4,9.64,6.53-.22.46-.69.85-1.18,1.22,6.24-.13,12.38-.17,18.56-.24,2.7-1.06,5.07-2.04,6.5-2.55,11.28-4.04,22.33-6.97,33.45-10.89,13.42-4.74,33.7-12.2,45.59-18.9,5.54-3.12,12.38-10.59,18.75-13.1ZM365.64,82.67c3.19-5.01,11.25-3.5,14.83.36-1.71,2.48-14.23.79-14.83-.36ZM501.17,115.76c-9.65-1.79-21.69-.49-30.96-3.95-4.32-1.61-7.09-6.86-11.37-8.82-3.02-1.38-7.05-.92-10.1-2.91-1.62-3.09,12.38-3.5,13.55-3.72,6.53-1.24,10.09-4.08,17.87-1.75,12.53,3.75,16.11,10.16,21.02,21.15ZM475.18,158.04c.3-3.65,9.69-4.45,10.56-2.68-.12,3.8-10.04,3.79-10.56,2.68Z"/>
  <path class="cls-1" d="M494.75,221.61c5.1-2.01,14.78-2.63,20.33-4.4,7.71-2.46,14.31-8.66,24.79-6.65,7.6,1.46,18.12,9.19,25.39,6.49,4.89-1.82,18.05-12.24,20.11-16.88,3.53-7.95-7.07-4.67-10.82-2.1-2.95,2.02-4.42,4.79-7.66,7.09-7.82,5.53-16.41,6.16-25.08,2.01,5.44-6.93,6.18-2.71,11.68-3.52,6.14-.9,11.33-6.66,15.98-8.23,3.99-1.34,10.19-.89,14.31-3.12,18.79-10.15,33.59-27.03,54.61-34.01.89-.29,12.8-5.4,8.53-.74-2.7,2.94-13.17,7.44-16.9,9.63-.78.46-1.09,1.95-1.8,2.35-4.16,2.33-11.44,1.5-12.67,9.18.79.22,1.56.35,2.32.48,13.65-8.99,26.86-18.58,39.96-28.34-1.5-.64-3.17-1.68-3.29-2.01-.22-.64,1.48-4.93,2.27-5.56,1-.79,8.24.48,10.4.26.14-.01.35-.06.52-.09,8.18-6.12,16.36-12.25,24.63-18.26,12.89-9.37,26.12-18,39.66-26.02-6.08-1.07-11.94-1.67-17.33-1.5-14.26.46-24.52,1.12-39.33-.29-13.25-1.27-18.5-.7-30.77-.88-15.77-.23-33.1-3.34-48.67-3.71-13.58-.33-19.38,3.1-30.9,5.53-17.39,3.67-19.31-.95-34.22-4.29-5.49-1.23-14.93-.3-21.32-1.69-10.4-2.25-20.95-8.07-30.97-10.28-22.56-4.98-56.07,4.95-80.32-4.39-16.55-6.37-17.55-6.56-34.67-9.76-5.68-1.06-11.51-3.83-17.67-4.54-12.34-1.44-25.44,6.71-37.32,9.34-5.06,1.12-39.14-3.82-47.06-5.11-14.04-2.3-27.59-6.78-41.49-9.68l-1.86,1.32c.89,3.24,30.6,12.73,36.02,13.99,7.72,1.8,19.46,1.51,27.17,3.86,6.36,1.93,15.97,9.72,20.13,10.31,1.61.23,12.1-3.04,14.02-3.97,3.52-1.71,8.68-6.91,11.4-7.54,10.42-2.42,16.88,1.03,26.11,1.46,3.77.18,8.18-2.58,12.1-.31.21.43-6.55,6.1-7,6.33-5.45,2.79-15.79,1.97-20.94,3.66-5.7,1.87-12.25,8.8-20.41,10.44-9.76,1.96-51.98,2.92-62.03,1.55-12.28-1.68-8.64-3.78-15.43-9.35-7.93-6.5-40.37-18.48-51.1-21.64-3.63-1.07-10.43-2.42-7.35,3.21,3.13,5.7,38.7,16.55,46.68,21.63-1.28,6.7-11.89-.52-15.39-1.61-14.64-4.55-39.96-12-51.76-20.84-16.94-12.7-37.07-21.19-56.89-29.69-2.79-1.19-6.13-.69-9.74-2.76-3.15-1.81-3.78-4.95-6.18-7.1-13.07-11.7-25.8-19.55-41.98-26.64-3.15-1.38-21.86-9.26-15.51.94,2.57,4.13,26.5,12.71,32.53,18.05,3.29,2.9,3.21,6.72,6.37,9.94,14.17,14.45,47.99,24.42,66.69,35.58,1.46.87,7.17,5.47,6.72,6.64-9.54,5.8-23.37-4.43-29.84,6.75.62,1.18,22.96,3.01,26.34,3.09,3.46.09,9.4-1.89,13.97-1.67,16.24.76,35.48,11.8,50.91,17.28,16.23,5.76,32.15,5.5,48.67,8.66,3.77.72,7.12,3.21,11.48,3.82,4.81.68,11.24-.98,19.39-.08,1.19.13,1.77-2.33,5.27-1.67,13.69,2.58,6.14,5.93,6.92,7.84,4.99,3.55,10.58-1.92,13.18-2.36,2.45-.41,4.83,1.81,8.41,1.31,2.83-.39,9.27-4.86,12.23-6.58,11.13-6.5,19.72-12.41,34.63-13.91,7.25-.73,17.97,1.84,23.01,1.08,13.91-2.12,19.85-4.47,35.01-2.49,1.13.15,1.72-1.84,2.36-1.78,4.3.39,3.55,8.46,4.69,10.66.99,1.92,4.84,3.84,6.87,4.82,17.76,8.55,51.37,16.86,71.14,18.91,2.51.26,3.11-1.99,4.24-1.81,2.45.38,4.31,2.46,7.39,1.61,3.58-.98,3.81-6.11,6.59-7.11,3.39-1.21,12.09-1.32,16.67-2.42,5.22-1.24,17.73-7.75,21.92-8.11,6.73-.57,13.06-1.25,19.73-1.93,8.27-.84,41.67-.37,48.75,1.69,3.32.96,8.75,3.62,6.39,7.68-4.97,8.54-20.15,17.72-29.92,19.06-16.94,2.33-34.34-2.61-50.12-7.02-4.32-1.21-17.39-5.94-18.45.2-.46,2.68,20.39,12.35,23.87,15.53l-12.25,6.66c-4.46-.04-20.57,1.65-10.28,7.72,3.43,2.02,22.55.83,27.42.05,6.4-1.02,15.87-6.07,22.52-4.59,8.35,1.86-11.5,13.17-12.49,14.04-2.47,2.18-3.02,4.8-6.61,7.27-10.89,7.53-27.15,9.14-39.47,12.75-7.13,2.09-14.1,9.15-22.36,4.65-1.75-.95-9.35-6.48-11.12-7.92-3.61-2.95-5.53-9.46-10.4-12.09-4.82-7.21,7.43-10.71,12.28-14.18,1.87-1.34,2.53-3.74,3.85-4.63.5-.34,9.96-1.41,12-1.76,1.73-.3,3.01,1.99,3.61-1.71-5.09-1.42-10.69-5.13-15.8-5.88-3.51-.52-6.7,2.21-11.04,1.65-8.87-1.15-20.52-2.75-29.29-4.22-12.71-2.13-24.97-8.4-38.9-8.25-2.86.03-11.32,1.9-9.68,5.84.33.8,14.24,4.63,16.43,5.21,5.3,5.19,15.01,7.09,21.09,11.12,2.12,1.41,9.5,11.09,5.63,12.74-.53.22-6.42-1.71-11.13-.27-24.88,7.62-44.12,16.11-71.68,13.68-6.81-.6-46.11-11.33-48.35-5.28-1.92,5.18,10.41,4.91,13.29,5.6,33.13,7.9,43.08,9.74,76.81,3.28,6.48-1.24,13.35-4.39,18.98-5.89,3.39-.91,8.21-2.42,11.54-2.72,5.09-.45,13.66,1.63,17.03.84,4.69-1.08,4.8-9.41,12.72-4.49,6.88,4.27-2.99,6.65-3.57,7.5-3.17,4.65,7.66,4.94,9.43,5.64,6.88,2.73,14.28,8.24,21.33,9.74,1.17,5.2-11.68,7.29-15.12,9.01-28.77,14.39-54.83,33.73-88.11,38.2-4.88.66-65.45-2.01-69.98-3.15-7.16-1.81-15.1-8.59-22.63-11.52-4.54-1.77-9.82-1.43-14.77-4.24-2.69-1.52-3.61-4.31-6.02-5.28-3.91-1.56-27.16,4.79-21.22,12.42,4.32,5.54,12.29.08,17.13.63,1.35.15,12.02,2.43,12.88,2.76,2.99,1.13,5.84,4.65,9.59,5.13-14.58,4.08-32.57.34-46.18-5.7-10.12-4.49-19.34-12.17-28.77-16.77-68.35-33.29-137.29-45.22-195.51-98.37-5.29-4.83-19.16-19.52-25.95-19.9-1.98-.11-7.75,1.92-9.15,3.47-7.64,8.45,10.34,13.25,14.88,16.5,16.75,11.97,22.53,24.53,44.97,37.09,47.84,26.78,101.93,48.1,151.88,71.27,15.78,7.32,29.19,15.87,44.12,22.95,27.97,13.25,73.75,3.32,105.71,6.49,4.9.49,12.55.4,9.64,6.53-.22.46-.69.85-1.18,1.22,6.24-.13,12.38-.17,18.56-.24,2.7-1.06,5.07-2.04,6.5-2.55,11.28-4.04,22.33-6.97,33.45-10.89,13.42-4.74,33.7-12.2,45.59-18.9,5.54-3.12,12.38-10.59,18.75-13.1ZM365.64,82.67c3.19-5.01,11.25-3.5,14.83.36-1.71,2.48-14.23.79-14.83-.36ZM501.17,115.76c-9.65-1.79-21.69-.49-30.96-3.95-4.32-1.61-7.09-6.86-11.37-8.82-3.02-1.38-7.05-.92-10.1-2.91-1.62-3.09,12.38-3.5,13.55-3.72,6.53-1.24,10.09-4.08,17.87-1.75,12.53,3.75,16.11,10.16,21.02,21.15ZM475.18,158.04c.3-3.65,9.69-4.45,10.56-2.68-.12,3.8-10.04,3.79-10.56,2.68Z"/>
</svg>